<svg width="26" height="26" viewBox="0 0 26 26" fill="none" xmlns="http://www.w3.org/2000/svg">
<path d="M3.0046 11.5951L5.1296 5.22005H20.7129L22.8379 11.5951M20.7129 18.6784C20.1493 18.6784 19.6088 18.4545 19.2103 18.056C18.8118 17.6575 18.5879 17.117 18.5879 16.5534C18.5879 15.9898 18.8118 15.4493 19.2103 15.0508C19.6088 14.6523 20.1493 14.4284 20.7129 14.4284C21.2765 14.4284 21.817 14.6523 22.2155 15.0508C22.614 15.4493 22.8379 15.9898 22.8379 16.5534C22.8379 17.117 22.614 17.6575 22.2155 18.056C21.817 18.4545 21.2765 18.6784 20.7129 18.6784ZM5.1296 18.6784C4.56601 18.6784 4.02551 18.4545 3.627 18.056C3.22848 17.6575 3.0046 17.117 3.0046 16.5534C3.0046 15.9898 3.22848 15.4493 3.627 15.0508C4.02551 14.6523 4.56601 14.4284 5.1296 14.4284C5.69318 14.4284 6.23368 14.6523 6.6322 15.0508C7.03071 15.4493 7.2546 15.9898 7.2546 16.5534C7.2546 17.117 7.03071 17.6575 6.6322 18.056C6.23368 18.4545 5.69318 18.6784 5.1296 18.6784ZM22.7246 4.51172C22.4413 3.69005 21.6479 3.09505 20.7129 3.09505H17.1713V0.261719H8.67126V3.09505H5.1296C4.1946 3.09505 3.40126 3.69005 3.11793 4.51172L0.171265 13.0117V24.3451C0.171265 24.7208 0.32052 25.0811 0.586197 25.3468C0.851873 25.6125 1.21221 25.7617 1.58793 25.7617H3.0046C3.38032 25.7617 3.74066 25.6125 4.00633 25.3468C4.27201 25.0811 4.42126 24.7208 4.42126 24.3451V22.9284H21.4213V24.3451C21.4213 24.7208 21.5705 25.0811 21.8362 25.3468C22.1019 25.6125 22.4622 25.7617 22.8379 25.7617H24.2546C24.6303 25.7617 24.9907 25.6125 25.2563 25.3468C25.522 25.0811 25.6713 24.7208 25.6713 24.3451V13.0117L22.7246 4.51172Z" fill="#FFC100"/>
</svg>
