<svg width="45" height="45" viewBox="0 0 45 45" fill="none" xmlns="http://www.w3.org/2000/svg">
<path d="M4.38232 38.8545H41.049" stroke="#FFC100" stroke-width="4" stroke-linecap="round" stroke-linejoin="round"/>
<path d="M13.549 24.188H9.88228C8.86976 24.188 8.04895 25.0088 8.04895 26.0213V37.0213C8.04895 38.0338 8.86976 38.8547 9.88228 38.8547H13.549C14.5615 38.8547 15.3823 38.0338 15.3823 37.0213V26.0213C15.3823 25.0088 14.5615 24.188 13.549 24.188Z" stroke="#FFC100" stroke-width="4" stroke-linejoin="round"/>
<path d="M11.7157 31.5212H12.6324" stroke="#FFC100" stroke-width="4" stroke-linecap="square" stroke-linejoin="round"/>
<path d="M35.549 4.02124H17.2157C16.2031 4.02124 15.3823 4.84205 15.3823 5.85457V37.0212C15.3823 38.0338 16.2031 38.8546 17.2157 38.8546H35.549C36.5615 38.8546 37.3823 38.0338 37.3823 37.0212V5.85457C37.3823 4.84205 36.5615 4.02124 35.549 4.02124Z" stroke="#FFC100" stroke-width="4" stroke-linejoin="round"/>
<path d="M20.8823 9.52124H24.549V13.1879H20.8823V9.52124ZM28.2157 9.52124H31.8823V13.1879H28.2157V9.52124ZM20.8823 15.9379H24.549V19.6046H20.8823V15.9379ZM28.2157 15.9379H31.8823V19.6046H28.2157V15.9379ZM28.2157 22.3546H31.8823V26.0212H28.2157V22.3546ZM28.2157 28.7712H31.8823V32.4379H28.2157V28.7712Z" fill="#FFC100"/>
</svg>
