<svg width="33" height="22" viewBox="0 0 33 22" fill="none" xmlns="http://www.w3.org/2000/svg">
<path d="M31.9609 21.3483L31.7626 21.0623C31.8938 20.9713 32.0057 20.8551 32.0916 20.7205C32.1776 20.5859 32.2359 20.4356 32.2633 20.2782C32.2906 20.1208 32.2864 19.9596 32.2508 19.8039C32.2153 19.6482 32.1492 19.5011 32.0563 19.3712L32.0547 19.369C30.7476 17.5111 28.9667 16.0372 26.8971 15.1006L26.3924 14.8722L26.8172 14.5167C28.077 13.4622 28.9812 12.0451 29.4067 10.4582C29.8322 8.87142 29.7583 7.19202 29.1951 5.6487C28.6319 4.10538 27.6068 2.77313 26.2593 1.83333C24.9117 0.893543 23.3073 0.391882 21.6644 0.396653L21.6628 0.396657C20.9317 0.395439 20.204 0.496392 19.5008 0.696584L19.4946 0.698363L19.4946 0.698304C19.3384 0.739636 19.192 0.811626 19.0639 0.910083C18.9358 1.00854 18.8286 1.13149 18.7484 1.27179C18.6683 1.41209 18.6169 1.56692 18.5972 1.72728C18.5775 1.88764 18.5899 2.05031 18.6336 2.20584C18.6774 2.36136 18.7517 2.50663 18.8521 2.63318C18.9525 2.75972 19.0772 2.86503 19.2187 2.94295C19.3602 3.02088 19.5158 3.06987 19.6765 3.08708C19.8371 3.10429 19.9996 3.08937 20.1544 3.04319L20.1584 3.042L20.1584 3.04202C20.6481 2.90233 21.1549 2.83194 21.6641 2.8329M31.9609 21.3483L30.0655 20.769C29.1165 19.4226 27.8581 18.3237 26.3962 17.5645C24.9342 16.8053 23.3112 16.4081 21.6638 16.4063H21.6634C21.3404 16.4063 21.0305 16.2779 20.8021 16.0495C20.5736 15.821 20.4453 15.5112 20.4453 15.1881C20.4453 14.8651 20.5736 14.5552 20.8021 14.3268C21.0305 14.0983 21.3404 13.97 21.6634 13.97C23.1403 13.97 24.5567 13.3833 25.601 12.339C26.6453 11.2947 27.232 9.87833 27.232 8.40145C27.232 6.92458 26.6453 5.5082 25.601 4.46389C24.5568 3.41974 23.1407 2.83307 21.6641 2.8329M31.9609 21.3483L31.7585 21.0652C31.5554 21.2104 31.3117 21.2882 31.062 21.2874L31.9609 21.3483ZM21.6641 2.8329L21.6634 3.18093V2.8329C21.6636 2.8329 21.6639 2.8329 21.6641 2.8329ZM16.1797 14.5172L15.7569 14.8729L16.2603 15.1006C18.3299 16.0372 20.1108 17.5111 21.4179 19.369L21.4229 19.3761L21.4282 19.3829C21.5298 19.513 21.6038 19.6624 21.6459 19.8219C21.688 19.9815 21.6972 20.148 21.6729 20.3112C21.6487 20.4744 21.5916 20.6311 21.505 20.7715C21.4184 20.912 21.3042 21.0335 21.1693 21.1285C21.0343 21.2235 20.8815 21.2901 20.7201 21.3242C20.5586 21.3584 20.3919 21.3593 20.2301 21.3271C20.0682 21.2949 19.9146 21.2301 19.7786 21.1367C19.6425 21.0433 19.5269 20.9232 19.4386 20.7838L19.4342 20.7767L19.4294 20.7699C18.4822 19.4208 17.2242 18.3197 15.7616 17.5595C14.299 16.7993 12.6749 16.4025 11.0266 16.4025C9.37829 16.4025 7.75419 16.7993 6.29163 17.5595C4.82906 18.3197 3.57102 19.4208 2.62386 20.7699L2.62308 20.771C2.51174 20.9309 2.36329 21.0614 2.19044 21.1514C2.0176 21.2413 1.82552 21.288 1.63067 21.2874L1.62854 21.2874C1.37865 21.2883 1.13482 21.2105 0.931515 21.0652L0.929843 21.064C0.666328 20.878 0.487351 20.5951 0.432165 20.2773C0.376985 19.9595 0.450069 19.6328 0.635393 19.3689C1.94249 17.511 3.72339 16.0372 5.79296 15.1006L6.29628 14.8729L5.87352 14.5172C4.61709 13.4602 3.71607 12.0425 3.29262 10.4562C2.86916 8.86982 2.94376 7.19164 3.50628 5.64912C4.06881 4.10661 5.09206 2.77439 6.43731 1.83306C7.78256 0.891739 9.38473 0.386853 11.0266 0.386853C12.6685 0.386853 14.2707 0.891739 15.6159 1.83306C16.9612 2.77439 17.9844 4.10661 18.5469 5.64912C19.1095 7.19164 19.1841 8.86982 18.7606 10.4562C18.3372 12.0425 17.4361 13.4602 16.1797 14.5172ZM6.39653 5.30773C5.78465 6.22347 5.45806 7.3001 5.45806 8.40145C5.45806 9.87833 6.04474 11.2947 7.08905 12.339C8.13336 13.3833 9.54974 13.97 11.0266 13.97C12.128 13.97 13.2046 13.6434 14.1203 13.0315C15.0361 12.4197 15.7498 11.55 16.1713 10.5324C16.5928 9.51493 16.703 8.39528 16.4882 7.31508C16.2733 6.23489 15.743 5.24267 14.9642 4.46389C14.1854 3.68511 13.1932 3.15476 12.113 2.9399C11.0328 2.72503 9.91314 2.83531 8.89562 3.25678C7.8781 3.67825 7.00841 4.39198 6.39653 5.30773Z" fill="#FFC100" stroke="#FFC100" stroke-width="0.696069"/>
</svg>
